<svg width="24" height="24" viewBox="0 0 24 24" fill="none" xmlns="http://www.w3.org/2000/svg">
<rect width="24" height="24" fill="white"/>
<path d="M12 24C18.6274 24 24 18.6274 24 12C24 5.37258 18.6274 0 12 0C5.37258 0 0 5.37258 0 12C0 18.6274 5.37258 24 12 24Z" fill="#BB8B50"/>
<path d="M12.3945 4.40002C14.3034 4.40085 16.0952 5.14403 17.4424 6.4928C18.7895 7.84146 19.531 9.63414 19.5303 11.5406C19.5287 15.474 16.3287 18.6748 12.3945 18.6764H12.3916C11.1974 18.6759 10.0236 18.3767 8.98145 17.8082L5.19922 18.8004L6.21191 15.1022C5.58749 14.02 5.25825 12.7924 5.25879 11.5348C5.26055 7.60073 8.46166 4.40011 12.3945 4.40002ZM12.3975 5.6051C9.12605 5.6051 6.46516 8.26579 6.46387 11.5358C6.46345 12.6563 6.77651 13.7478 7.37012 14.692L7.51172 14.9166L6.91211 17.1051L9.15723 16.5162L9.37402 16.6442C10.2846 17.1845 11.3284 17.4709 12.3926 17.4713H12.3945C15.6633 17.4713 18.3237 14.8107 18.3252 11.5406C18.3258 9.95591 17.7096 8.46541 16.5898 7.34436C15.4702 6.22352 13.9814 5.60575 12.3975 5.6051ZM10.21 8.2467C10.3194 8.2522 10.4666 8.20471 10.6113 8.55237C10.7599 8.90942 11.1166 9.78734 11.1611 9.87659C11.2056 9.96568 11.2349 10.0694 11.1758 10.1881C11.1164 10.3069 11.0871 10.382 10.998 10.486C10.9089 10.59 10.8107 10.7185 10.7305 10.7985C10.6412 10.8873 10.5485 10.9833 10.6523 11.1617C10.7563 11.3402 11.1137 11.9243 11.6436 12.3971C12.3246 13.0045 12.8998 13.1926 13.0781 13.2819C13.2561 13.371 13.36 13.3566 13.4639 13.2379C13.5678 13.119 13.9094 12.7173 14.0283 12.5387C14.1472 12.3603 14.2663 12.3894 14.4297 12.4489C14.593 12.5084 15.468 12.9391 15.6475 13.0289C15.8258 13.1182 15.9447 13.1635 15.9893 13.2379C16.0338 13.3124 16.0342 13.6692 15.8857 14.0856C15.7371 14.5018 15.0253 14.8818 14.6826 14.9332C14.3756 14.9791 13.9865 14.9985 13.5596 14.8629C13.3006 14.7808 12.9683 14.6706 12.543 14.4869C10.7544 13.7146 9.58621 11.9136 9.49707 11.7946C9.4076 11.6752 8.76875 10.828 8.76855 9.95081C8.76855 9.07403 9.22878 8.64228 9.39258 8.4635C9.55588 8.28514 9.74929 8.23994 9.86816 8.23987C9.98695 8.23987 10.1061 8.24149 10.21 8.2467Z" fill="white"/>
</svg>
